PathFileType	4	(X/Y/Z)	Kaydara	
DataRate	CameraRate	NumFrames	NumMarkers	Units	OrigDataRate	OrigDataStartFrame	OrigNumFrames	
120.00	120.00	4	72	mm	120.00	101	268	
Frame#	Time	Hips			RightUpLeg			RightLeg			RightFoot			RightFoot_End			LeftUpLeg			LeftLeg			LeftFoot			LeftFoot_End			Spine			Spine1			Spine2			Spine3			Neck			Head			Head_End			RightShoulder			RightArm			RightForeArm			RightHand			RightHandThumb1			RightHandThumb2			RightHandThumb3			RightHandThumb3_End			RightInHandIndex			RightHandIndex1			RightHandIndex2			RightHandIndex3			RightHandIndex3_End			RightInHandMiddle			RightHandMiddle1			RightHandMiddle2			RightHandMiddle3			RightHandMiddle3_End			RightInHandRing			RightHandRing1			RightHandRing2			RightHandRing3			RightHandRing3_End			RightInHandPinky			RightHandPinky1			RightHandPinky2			RightHandPinky3			RightHandPinky3_End			LeftShoulder			LeftArm			LeftForeArm			LeftHand			LeftHandThumb1			LeftHandThumb2			LeftHandThumb3			LeftHandThumb3_End			LeftInHandIndex			LeftHandIndex1			LeftHandIndex2			LeftHandIndex3			LeftHandIndex3_End			LeftInHandMiddle			LeftHandMiddle1			LeftHandMiddle2			LeftHandMiddle3			LeftHandMiddle3_End			LeftInHandRing			LeftHandRing1			LeftHandRing2			LeftHandRing3			LeftHandRing3_End			LeftInHandPinky			LeftHandPinky1			LeftHandPinky2			LeftHandPinky3			LeftHandPinky3_End			
		X1	Y1	Z1	X2	Y2	Z2	X3	Y3	Z3	X4	Y4	Z4	X5	Y5	Z5	X6	Y6	Z6	X7	Y7	Z7	X8	Y8	Z8	X9	Y9	Z9	X10	Y10	Z10	X11	Y11	Z11	X12	Y12	Z12	X13	Y13	Z13	X14	Y14	Z14	X15	Y15	Z15	X16	Y16	Z16	X17	Y17	Z17	X18	Y18	Z18	X19	Y19	Z19	X20	Y20	Z20	X21	Y21	Z21	X22	Y22	Z22	X23	Y23	Z23	X24	Y24	Z24	X25	Y25	Z25	X26	Y26	Z26	X27	Y27	Z27	X28	Y28	Z28	X29	Y29	Z29	X30	Y30	Z30	X31	Y31	Z31	X32	Y32	Z32	X33	Y33	Z33	X34	Y34	Z34	X35	Y35	Z35	X36	Y36	Z36	X37	Y37	Z37	X38	Y38	Z38	X39	Y39	Z39	X40	Y40	Z40	X41	Y41	Z41	X42	Y42	Z42	X43	Y43	Z43	X44	Y44	Z44	X45	Y45	Z45	X46	Y46	Z46	X47	Y47	Z47	X48	Y48	Z48	X49	Y49	Z49	X50	Y50	Z50	X51	Y51	Z51	X52	Y52	Z52	X53	Y53	Z53	X54	Y54	Z54	X55	Y55	Z55	X56	Y56	Z56	X57	Y57	Z57	X58	Y58	Z58	X59	Y59	Z59	X60	Y60	Z60	X61	Y61	Z61	X62	Y62	Z62	X63	Y63	Z63	X64	Y64	Z64	X65	Y65	Z65	X66	Y66	Z66	X67	Y67	Z67	X68	Y68	Z68	X69	Y69	Z69	X70	Y70	Z70	X71	Y71	Z71	X72	Y72	Z72	

101	0.833	2446.805	859.65103	-201.189	2520.4191499589224	852.4603055211779	-233.0951219965509	2398.0353866550213	457.6397914928399	-278.20424589812615	2448.8080582161774	53.483004332449795	-356.50846947878904	2388.5065300678343	-30.797580324270985	-204.04356504623337	2381.9020144344645	838.7838581041527	-155.53556763416137	2259.585041525695	444.11443526099765	-90.35264900049245	2199.175397351904	68.00916772101525	77.85955892469065	2240.9016414617076	21.51294250507402	256.19678615520206	2404.2136394640056	982.6358532979832	-259.3910365266563	2353.0522779229404	1050.5843753479826	-305.2528762762054	2293.5831409500634	1115.6429524341797	-353.251959040992	2228.7013446079422	1169.3371823561977	-399.65048840774534	2158.5203463181383	1226.9063284408212	-445.61059759823365	2116.867056890083	1299.8563267845477	-403.06538291132284	2093.62557569796	1387.0315242027825	-272.41366400762564	2197.6918272065454	1214.1027305005998	-446.98222221362977	2263.993807909922	1218.704069944803	-510.35295368198416	2346.149139776365	1023.4083816200483	-515.0908439917769	2430.407604805591	968.3513760272293	-597.8086255739631	2434.6549608259224	981.9204084622065	-606.6932657270557	2430.233182542631	988.9601450526458	-621.9420472370465	2428.3591959912665	991.3746897850175	-632.1901757077035	2427.828062620081	991.259231819702	-640.4161103495373	2440.7646976599317	974.270413481915	-605.5546633788732	2455.0035366679062	973.9861948377561	-618.7164970493939	2457.4381908693026	973.66224072316	-631.2056461508407	2452.762484660388	975.4402822438132	-640.0788879596264	2444.7175194533047	978.2471555208447	-648.1711490927381	2443.1921626150825	967.507546274524	-604.2454282609131	2458.395444692135	963.5723210656424	-616.3739704389442	2461.316912822178	962.327242119731	-629.7908336381764	2455.8028942596097	964.044547463139	-640.3946859306841	2447.061991402364	966.9077903003464	-649.1998021995574	2444.630414232428	962.7217906762172	-602.9509686997702	2459.7574919392196	954.996667158678	-612.5985186346833	2462.5495649175764	953.0065328002781	-624.0580134214481	2457.3613246187097	954.1824476021432	-634.1616385186996	2449.2044954052417	956.6468971299822	-642.381602082516	2445.1933285650657	957.3326620229785	-601.3425520879864	2459.71002020061	946.8742862231128	-609.0910873092687	2462.262542447126	943.9026811681223	-617.859446563979	2458.6314277205774	944.0938265247722	-625.0317216626613	2451.4939825823894	945.8933079160067	-632.1996986168774	2165.407942130627	1204.1929537093083	-412.08540812396996	2119.6582989030426	1147.075150873076	-351.1232293041812	2214.294266219262	1031.6424789079015	-493.39309591485653	2373.456138440442	987.6473811945649	-474.26114354435765	2370.354632473952	1002.6981141941028	-479.3293839490281	2378.027575472659	1004.2002495594623	-501.2752902849853	2383.6016015346017	1002.9991748167477	-518.4858599203303	2388.4456860817963	1000.0754966010152	-534.4824379907903	2369.8183089907207	996.8802553130653	-485.758467100174	2369.78467220055	998.945042476757	-514.5731854411183	2375.521413548073	995.8055840334199	-539.6745608306196	2382.0644739128616	993.0121255942131	-554.2455886099356	2389.487927620664	990.1322454804887	-565.6082229400007	2370.7204328337416	990.4789384870596	-490.23785709690685	2371.173939088049	989.0316973706634	-520.7643328004216	2377.560200037382	984.7488744114985	-548.6588132785029	2385.5147969429777	980.9673928104143	-566.4800157384183	2393.666877908264	977.6163432361514	-579.0303446534675	2371.301649414888	985.9359097567424	-492.63430297269616	2372.045898807986	980.7893923540776	-521.9760469940032	2377.741229367949	976.1823933345418	-546.7562651286052	2385.4826041761994	972.0706678542222	-564.1943762459206	2393.1801015134083	968.6998749968366	-576.1124389771937	2372.421443876918	980.386422590488	-494.8210023490763	2373.603174650018	972.3535074907072	-522.979957575544	2378.3622871734983	967.3229550512124	-543.4243307439699	2384.1049018042486	963.6749401327692	-556.434629014317	2390.9788863720205	960.3155199982217	-567.159484871393
102	0.842	2446.805	859.65103	-201.189	2520.0361110199315	852.3771852550213	-233.12048399667617	2398.147393749675	457.45378629821926	-278.10130405909706	2449.2885645025826	53.739376670218114	-357.0178645261329	2389.5306902092952	-30.727792953892557	-204.7383705152215	2382.2685683193754	838.8577279651315	-155.51994447009332	2259.8764390380875	444.2489002698844	-90.18091280404452	2199.3538611498557	68.09156193723035	77.88025634320014	2241.345564933613	21.48227494800851	256.1082949019952	2404.308931515566	982.6816189406089	-259.3465360150847	2353.234762129056	1050.7318773474776	-305.14429221365646	2293.8761202060005	1115.9313537073617	-353.0738131216691	2229.1111597632384	1169.7977060846652	-399.4075357145846	2159.0546366061067	1227.5470339179537	-445.2947774544674	2117.3851461994223	1300.5149978463176	-402.8164740391093	2094.17605255601	1387.7409107043284	-272.218817774396	2198.098434505799	1214.6317739315639	-446.63552687579903	2264.0782169231097	1219.2572616556736	-509.5897366378111	2346.435583185409	1024.4863611412463	-513.8279956327048	2430.138747284017	969.550816525554	-596.6397184597222	2434.455139004987	983.2989742093564	-605.4242521364289	2430.1298029680675	990.4808291343468	-620.6480335306015	2428.312178562455	992.9846371224571	-630.8942779911355	2427.818793362347	992.935287880045	-639.1319283617742	2440.52706610247	975.6341871163667	-604.3281758963702	2454.7970813049187	975.5496061512757	-617.4767224003892	2457.2824231867335	975.3454644775763	-629.9777259323074	2452.660517953891	977.1799180869172	-638.8583043753719	2444.675123255347	980.0212894671307	-646.9566176849467	2442.9254501843084	968.8370571627498	-603.0626394688595	2458.1434030023024	965.0780244238629	-615.2018507834434	2461.116276619999	963.9584913871752	-628.6374869112827	2455.6652998955788	965.7413628975949	-639.252988281564	2446.988664665937	968.6411445315379	-648.066087946661	2444.3420009712454	964.0221701492667	-601.7992774639932	2459.462341883603	956.4301603097874	-611.4830460407034	2462.2952140153743	954.5438649118959	-622.9648511653614	2457.1656471388383	955.7800589178759	-633.0828742338125	2449.0682393368497	958.2774567614424	-641.3118390098493	2444.881829566152	958.5923407690078	-600.2279960648293	2459.376911540958	948.2316007147324	-608.0322503833906	2461.9558855062223	945.3338477079634	-616.8275988917825	2458.3645595094613	945.5644609613838	-624.0147902256803	2451.2780224843	947.3905414797823	-631.1932809376332	2165.992144708036	1204.81965161002	-411.8594353505014	2120.5211075128805	1147.951061378407	-351.12659852969125	2214.838230200844	1032.7671704649133	-492.6970558643613	2373.275767376527	989.271404479074	-473.4087725356433	2370.2821859791597	1004.4422587350202	-478.4508429979742	2378.026948967919	1005.9780045123067	-500.2724082535145	2383.6436514585866	1004.7949150237392	-517.3915549940957	2388.517035437454	1001.881589157746	-533.3077883413303	2369.7324917285687	998.6250902161373	-484.86805349672875	2369.802990714329	1000.8149171184143	-513.5727102206097	2375.595975856222	997.7137855387982	-538.555566867495	2382.1629981892725	994.9121485383815	-553.0423688540806	2389.598858152781	992.0039094273928	-564.3281747817491	2370.6102624652844	992.202354271839	-489.33614407896397	2371.152167897577	990.8655021950655	-519.7491657280403	2377.596229781222	986.621209151774	-547.5131282022833	2385.5780181226123	982.8282790421907	-565.232145357146	2393.742843428262	979.4454286370536	-577.6981397048985	2371.1717493137858	987.6414875727384	-491.7277840352905	2371.9785005023887	982.5798271027704	-520.9647707738345	2377.720419362993	978.0028665624668	-545.6301926473408	2385.4860093449165	973.8782171453119	-562.9691836087912	2393.194536879167	970.4766334160247	-574.8076891723177	2372.2647095594775	982.0640034645297	-493.9092025916142	2373.487712479643	974.093324845521	-521.9700331716755	2378.2779455656787	969.080922433719	-542.321313272032	2384.035230840468	965.4206248767316	-555.2587512540248	2390.91725876969	962.0322853033377	-565.9128057123397
103	0.85	2446.805	859.65103	-201.189	2519.650450695446	852.289471737579	-233.14990849978085	2398.252501281837	457.25914070362825	-277.91910831077865	2449.768265637575	53.98742762670878	-357.4308261829292	2390.5632352283883	-30.66788184923003	-205.3345242593775	2382.6370837548866	838.9357116828054	-155.50089390519574	2260.182635361984	444.3908537624167	-89.9560004718053	2199.505907370425	68.17886567693907	77.9427276975886	2241.7475249801237	21.435641563546834	256.06274438962714	2404.40726805546	982.7297686010373	-259.2990097972856	2353.4253337983	1050.8905044441565	-305.0242608135792	2294.1832172184068	1116.2425047821343	-352.87443390587214	2229.5419654497136	1170.2967706437614	-399.1328656780523	2159.6173017893652	1228.242393176001	-444.936343281526	2117.9287323310123	1301.2224118764311	-402.517707495952	2094.728241706863	1388.4819720945234	-271.9688366068418	2198.5324217720854	1215.212520622512	-446.24150009481696	2264.1833332562214	1219.8893774731305	-508.7511871177855	2346.7346970464905	1025.6370688604259	-512.4722313462919	2429.9410791861487	971.0847619426536	-595.283149959278	2434.398558605389	984.9505957790619	-604.0160645641364	2430.2023681073315	992.2121496852336	-619.2419894769574	2428.453726062933	994.7578094846799	-629.5006508083615	2427.999925233711	994.7316707257112	-637.7580004570141	2440.404604877076	977.2488075488804	-602.9518846805064	2454.7279735992984	977.2319505567601	-616.1217720708308	2457.2703315622352	977.0688534496724	-628.651143003796	2452.707713997863	978.9313462074947	-637.5462197002545	2444.787473851617	981.7976298361077	-645.6544217141676	2442.745092446534	970.4119004989441	-601.7159601974844	2457.983764648974	966.6974150988381	-613.8920029407536	2461.01106584559	965.6171888935849	-627.3624487177444	2455.6278829525095	967.4312631279786	-637.9972921587704	2447.020721161929	970.357025401591	-646.822107960266	2444.1190515225353	965.5671727611162	-600.4729162677525	2459.220026715263	957.9891332307697	-610.2071488316701	2462.0923481427444	956.1314333253285	-621.7231735220482	2457.0239288156713	957.3947162175899	-631.8619173499496	2448.989835979087	959.9151131929224	-640.1028753236908	2444.6108297618102	960.1010920146915	-598.9249159226624	2459.057441338691	949.7307956413443	-606.7896067970989	2461.655628601368	946.8470404722895	-615.6182001361464	2458.102917468368	947.0931026390452	-622.8233287964044	2451.069022669446	948.9370819817212	-630.0140668310406	2166.600474439323	1205.4924024496042	-411.60242950716304	2121.4123309381125	1148.8694594033952	-351.1170141706096	2215.428078335574	1033.9640730299088	-491.9739567447537	2373.130660111756	990.95424410771	-472.5408590999413	2370.2434214752484	1006.2485465719662	-477.5551799742999	2378.0496147627578	1007.8242744711183	-499.2598718671926	2383.7002283424627	1006.6643086081895	-516.2924954979684	2388.5942899512065	1003.7662225026926	-532.1322055404812	2369.6750437828105	1000.4348972292352	-483.95822366357675	2369.8320534114173	1002.761776519739	-512.5503942276555	2375.667289427034	999.7073223303022	-537.4187294012355	2382.2512417831103	996.901188814722	-551.8273487251432	2389.694812529171	993.9666212566168	-563.0437290774253	2370.524824643956	993.9922378028427	-488.4145473730716	2371.1359731178754	992.7783013680439	-518.7114959341337	2377.622142805119	988.5818088743774	-546.3492564381974	2385.6224353760927	984.7819470126063	-563.9733562963343	2393.7947664333105	981.3695546054757	-576.3631025214789	2371.0644669724384	989.4142900664485	-490.8010538688047	2371.9147248389054	984.4493888093871	-519.9304731948087	2377.689152001413	979.9106907222788	-544.4848159538245	2385.4703649424105	975.777550027169	-561.7316768287305	2393.1848920291523	972.3473341454306	-573.4982183835326	2372.1286339255075	983.8092793336042	-492.97735730769705	2373.374289199148	975.9120725328755	-520.9373857379805	2378.1838194269203	970.9245725798149	-541.1984969825462	2383.949240529619	967.255309578665	-554.0681461042049	2390.834707690252	963.8400075785913	-564.6581128097234
104	0.858	2446.805	859.65103	-201.189	2519.2626938496524	852.1916747982832	-233.18374948219662	2398.3510355923695	457.0520152820694	-277.6719096703553	2450.264956498769	54.22619345331707	-357.77409271509737	2391.6229189723326	-30.617324353597386	-205.85754975608992	2383.0054092696328	839.0230065743898	-155.477592596234	2260.509487839432	444.5439923864697	-89.67089137747053	2199.6396203261643	68.28180871825934	78.0652639089557	2242.1200537141344	21.40383518452289	256.0798813303833	2404.515724220586	982.7819158382691	-259.25048193097126	2353.6267171987024	1051.0566903888596	-304.89828709043246	2294.5007882640034	1116.5650839816115	-352.66308642065934	2229.981817730838	1170.8116789457583	-398.83912464302443	2160.1872085097334	1228.9575562091845	-444.5512966360215	2118.4779248022223	1301.9438354091856	-402.1846067505283	2095.263733625351	1389.2254798532472	-271.68230457046735	2198.9728691243636	1215.8171898594112	-445.8156789304313	2264.286159294116	1220.5314145912994	-507.91171516132977	2347.0228234810625	1026.7917633710788	-511.104585293591	2429.8280159453907	972.6639162301432	-593.8631084633224	2434.478319481231	986.6055592234505	-602.5734970425265	2430.440055782749	993.9049597082499	-617.8176293430745	2428.7737414225294	996.4605066994578	-628.0965971796613	2428.364920003567	996.4285179401799	-636.3774040125337	2440.400115515739	978.8510425039062	-601.5327548886797	2454.799121010874	978.8111352816766	-614.7403291662771	2457.409232330384	978.6354163000909	-627.3057938582832	2452.9136876344487	980.5071401665595	-636.2195820008818	2445.0657936852067	983.3925897637116	-644.3407623095268	2442.663487324619	971.9702979358611	-600.3167359213484	2457.9342174402123	968.2096275873275	-612.5403065995854	2461.0250508888116	967.1099161347744	-626.05265327351	2455.717798452379	968.9323937878432	-636.7112813995379	2447.187370477839	971.8777924668391	-645.5508815263379	2443.980718098191	967.0950485417079	-599.0867547448886	2459.0602409273215	959.448677899272	-608.8747944645709	2461.977255874573	957.568242985558	-620.4298337794727	2456.976408462799	958.8365742677087	-630.5928482557366	2449.011780364087	961.3739834382224	-638.8483364797174	2444.407433333502	961.5956041520848	-597.5530509932618	2458.793212174118	951.1415719609636	-605.4757754089122	2461.4106233152024	948.2309321185694	-614.3392789288938	2457.899187565877	948.4764731433785	-621.5638822109174	2450.922215099197	950.3331086610721	-628.7685091460327	2167.2173671678415	1206.1772285108955	-411.3287439749922	2122.3144435662543	1149.7960010497923	-351.11776521599285	2216.0396771789456	1035.185077787148	-491.2502796656001	2373.0032610906615	992.6418070191601	-471.6899624104982	2370.2176703379273	1008.0651221878771	-476.6780118469043	2378.075206324263	1009.6886483926643	-498.27365334668764	2383.7515408159566	1008.557310320918	-515.2248427817068	2388.658453383845	1005.6791074056852	-530.991962553671	2369.626049673588	1002.2556157487687	-483.0649870316491	2369.850889487016	1004.7296984242312	-511.545954813252	2375.715119188118	1001.7295589787811	-536.3046749747332	2382.3100163620566	998.9231529604543	-550.6405604133613	2389.757867352663	995.9653984135653	-561.7936444828524	2370.4453069921897	995.7928761773362	-487.50871351819217	2371.1061094469715	994.7116692635119	-517.6903912488134	2377.619646538843	990.5712581708269	-545.207196864755	2385.6310932816323	986.7695349387501	-562.7429016205126	2393.807110649796	983.3310271400792	-575.0630788557104	2370.9617844280738	991.19747152523	-489.88942638481313	2371.836818888709	986.3377918632492	-518.9112961796308	2377.6306581805584	981.844505272898	-543.3590199672313	2385.4202733464076	977.7077256336809	-560.5199850499107	2393.1371434147827	974.2520819803289	-572.2208132771894	2371.9962435438656	985.5642373248406	-492.06015250984984	2373.2467759273663	977.7478255626102	-519.918968000521	2378.0648087000277	972.7908061346787	-540.0933088500803	2383.832948181934	969.1160474322493	-552.8996312056319	2390.7185345045673	965.6765792866483	-563.4310006107432
